<svg width="36" height="54" viewBox="0 0 36 54" fill="none" xmlns="http://www.w3.org/2000/svg">
<path d="M2.31088 36.8881C1.89302 36.4857 1.23176 36.4857 0.813891 36.8881C0.373171 37.3126 0.373171 38.0182 0.813894 38.4426L15.2322 52.3279C16.7812 53.8197 19.2325 53.8197 20.7815 52.3279L35.1998 38.4426C35.6405 38.0182 35.6405 37.3126 35.1998 36.8881C34.7819 36.4857 34.1206 36.4857 33.7028 36.8881L25.8926 44.4096C23.3518 46.8565 19.1179 45.0558 19.1179 41.5284L19.1179 1.11111C19.1179 0.49746 18.6205 -7.59982e-07 18.0068 -7.86805e-07C17.3932 -8.13628e-07 16.8957 0.49746 16.8957 1.11111L16.8957 41.5284C16.8957 45.0558 12.6618 46.8565 10.121 44.4096L2.31088 36.8881Z" fill="#242424"/>
</svg>
