<svg width="18" height="18" viewBox="0 0 18 18" fill="none" xmlns="http://www.w3.org/2000/svg">
<path fill-rule="evenodd" clip-rule="evenodd" d="M8.91734 0.660156C4.11324 0.660156 0.248291 4.52511 0.248291 9.32921C0.248291 13.158 2.74064 16.4089 6.17214 17.5648C6.60559 17.637 6.75008 17.3842 6.75008 17.1314C6.75008 16.9146 6.75008 16.3728 6.75008 15.6504C4.32997 16.1922 3.82427 14.4945 3.82427 14.4945C3.42694 13.4831 2.84901 13.2303 2.84901 13.2303C2.05434 12.6885 2.92125 12.6885 2.92125 12.6885C3.78815 12.7607 4.25773 13.5915 4.25773 13.5915C5.01627 14.928 6.2805 14.5306 6.7862 14.3139C6.85844 13.736 7.07517 13.3748 7.32801 13.158C5.4136 12.9413 3.39082 12.1828 3.39082 8.85963C3.39082 7.92049 3.71591 7.12582 4.29385 6.54789C4.22161 6.33116 3.89652 5.46425 4.36609 4.23614C4.36609 4.23614 5.08851 4.01941 6.75008 5.13917C7.43638 4.95856 8.19492 4.8502 8.91734 4.8502C9.63976 4.8502 10.3983 4.95856 11.0846 5.13917C12.7462 4.01941 13.4686 4.23614 13.4686 4.23614C13.9382 5.42813 13.6492 6.29504 13.5408 6.54789C14.0826 7.16194 14.4439 7.92049 14.4439 8.85963C14.4439 12.1828 12.4211 12.9052 10.4705 13.1219C10.7956 13.3748 11.0485 13.9166 11.0485 14.7112C11.0485 15.8671 11.0485 16.8063 11.0485 17.0952C11.0485 17.312 11.193 17.6009 11.6625 17.5287C15.094 16.4089 17.5864 13.158 17.5864 9.32921C17.5864 4.52511 13.7214 0.660156 8.91734 0.660156Z" fill="#151515"/>
</svg>
