<svg width="16" height="13" viewBox="0 0 16 13" fill="none" xmlns="http://www.w3.org/2000/svg">
<path d="M15.0313 1.68466C14.4707 1.93381 13.879 2.08953 13.2561 2.18296C13.879 1.80924 14.3773 1.21751 14.5953 0.501208C14.0036 0.843787 13.3495 1.09294 12.6332 1.24865C12.0727 0.656926 11.2629 0.283203 10.3909 0.283203C8.70916 0.283203 7.33884 1.65352 7.33884 3.33527C7.33884 3.58442 7.36999 3.80242 7.43227 4.02043C4.90965 3.89585 2.63617 2.68126 1.11013 0.812644C0.860986 1.2798 0.705268 1.77809 0.705268 2.33868C0.705268 3.39756 1.23471 4.33186 2.07558 4.89245C1.57729 4.8613 1.11013 4.73673 0.674125 4.51873V4.54987C0.674125 6.04476 1.73301 7.2905 3.13446 7.57079C2.88532 7.63308 2.60502 7.66422 2.32473 7.66422C2.13787 7.66422 1.91987 7.63308 1.73301 7.60194C2.13787 8.81654 3.25904 9.7197 4.59821 9.7197C3.53933 10.5294 2.2313 11.0277 0.798699 11.0277C0.549551 11.0277 0.300402 11.0277 0.0823975 10.9966C1.45271 11.8686 3.04103 12.3669 4.78507 12.3669C10.4221 12.3669 13.5053 7.69537 13.5053 3.64671C13.5053 3.52213 13.5053 3.36641 13.5053 3.24184C14.097 2.83697 14.6264 2.30753 15.0313 1.68466Z" fill="#151515"/>
</svg>
