<svg width="19" height="19" viewBox="0 0 19 19" fill="none" xmlns="http://www.w3.org/2000/svg">
<path d="M9.64969 2.29318C12.0694 2.29318 12.356 2.30224 13.3119 2.34583C13.8866 2.35286 14.4559 2.4584 14.995 2.65785C15.3859 2.80861 15.7409 3.03956 16.0372 3.33583C16.3335 3.6321 16.5644 3.98713 16.7152 4.37805C16.9146 4.91712 17.0202 5.4864 17.0272 6.06114C17.0704 7.01704 17.0799 7.3036 17.0799 9.72336C17.0799 12.1431 17.0708 12.4297 17.0272 13.3856C17.0202 13.9603 16.9146 14.5296 16.7152 15.0687C16.5644 15.4596 16.3335 15.8146 16.0372 16.1109C15.7409 16.4072 15.3859 16.6381 14.995 16.7889C14.4559 16.9883 13.8866 17.0939 13.3119 17.1009C12.3564 17.144 12.0699 17.1535 9.64969 17.1535C7.22949 17.1535 6.94294 17.1445 5.98746 17.1009C5.41272 17.0939 4.84345 16.9883 4.30438 16.7889C3.91345 16.6381 3.55843 16.4072 3.26216 16.1109C2.96589 15.8146 2.73494 15.4596 2.58418 15.0687C2.38473 14.5296 2.27919 13.9603 2.27216 13.3856C2.229 12.4297 2.21951 12.1431 2.21951 9.72336C2.21951 7.3036 2.22857 7.01704 2.27216 6.06114C2.27919 5.4864 2.38473 4.91712 2.58418 4.37805C2.73494 3.98713 2.96589 3.6321 3.26216 3.33583C3.55843 3.03956 3.91345 2.80861 4.30438 2.65785C4.84345 2.4584 5.41272 2.35286 5.98746 2.34583C6.94337 2.30268 7.22993 2.29318 9.64969 2.29318V2.29318ZM9.64969 0.660156C7.18979 0.660156 6.87993 0.670514 5.91324 0.714533C5.16105 0.729494 4.41684 0.871915 3.71228 1.13574C3.10787 1.36346 2.56044 1.72031 2.10817 2.18141C1.64665 2.63384 1.28949 3.18159 1.06163 3.78638C0.797809 4.49095 0.655389 5.23515 0.640428 5.98734C0.597272 6.95317 0.586914 7.26303 0.586914 9.72293C0.586914 12.1828 0.597271 12.4927 0.641291 13.4594C0.656252 14.2116 0.798672 14.9558 1.06249 15.6603C1.2901 16.265 1.64697 16.8128 2.10817 17.2653C2.56069 17.7265 3.10843 18.0834 3.71314 18.311C4.4177 18.5748 5.16191 18.7172 5.9141 18.7322C6.88079 18.7753 7.18936 18.7866 9.65055 18.7866C12.1117 18.7866 12.4203 18.7762 13.387 18.7322C14.1392 18.7172 14.8834 18.5748 15.588 18.311C16.1898 18.0777 16.7363 17.7214 17.1926 17.2648C17.6489 16.8082 18.0048 16.2615 18.2377 15.6595C18.5016 14.9549 18.644 14.2107 18.6589 13.4585C18.7021 12.4927 18.7125 12.1828 18.7125 9.72293C18.7125 7.26303 18.7021 6.95317 18.6581 5.98648C18.6431 5.23429 18.5007 4.49008 18.2369 3.78552C18.0093 3.18081 17.6524 2.63307 17.1912 2.18054C16.7387 1.71934 16.1909 1.36248 15.5862 1.13487C14.8817 0.871051 14.1375 0.728631 13.3853 0.71367C12.4194 0.670514 12.1096 0.660156 9.64969 0.660156Z" fill="#151515"/>
<path d="M9.65151 5.07031C8.73105 5.07031 7.83125 5.34326 7.06591 5.85464C6.30058 6.36603 5.70407 7.09287 5.35182 7.94327C4.99958 8.79367 4.90741 9.72942 5.08698 10.6322C5.26656 11.535 5.7098 12.3642 6.36067 13.0151C7.01154 13.666 7.84079 14.1092 8.74357 14.2888C9.64635 14.4684 10.5821 14.3762 11.4325 14.0239C12.2829 13.6717 13.0097 13.0752 13.5211 12.3099C14.0325 11.5445 14.3055 10.6447 14.3055 9.72426C14.3055 8.48996 13.8151 7.30621 12.9423 6.43342C12.0696 5.56064 10.8858 5.07031 9.65151 5.07031ZM9.65151 12.7452C9.05403 12.7452 8.46996 12.568 7.97317 12.2361C7.47639 11.9041 7.08919 11.4323 6.86054 10.8803C6.63189 10.3283 6.57207 9.72091 6.68863 9.13491C6.80519 8.54891 7.09291 8.01063 7.51539 7.58815C7.93788 7.16566 8.47615 6.87795 9.06216 6.76138C9.64816 6.64482 10.2556 6.70465 10.8076 6.93329C11.3596 7.16194 11.8314 7.54914 12.1633 8.04593C12.4953 8.54271 12.6724 9.12678 12.6724 9.72426C12.6724 10.5255 12.3542 11.2938 11.7876 11.8604C11.2211 12.4269 10.4527 12.7452 9.65151 12.7452V12.7452Z" fill="#151515"/>
<path d="M14.4884 5.97389C15.089 5.97389 15.5759 5.48699 15.5759 4.88636C15.5759 4.28573 15.089 3.79883 14.4884 3.79883C13.8878 3.79883 13.4009 4.28573 13.4009 4.88636C13.4009 5.48699 13.8878 5.97389 14.4884 5.97389Z" fill="#151515"/>
</svg>
