<svg width="140" height="140" viewBox="0 0 140 140" fill="none" xmlns="http://www.w3.org/2000/svg">
<path d="M131.406 85.8988C131.596 85.1712 131.885 84.6088 132.271 84.2116C132.665 83.8164 133.111 83.5213 133.611 83.3262L134.01 84.1827C133.53 84.3993 133.147 84.657 132.861 84.9559C132.573 85.2624 132.365 85.6597 132.238 86.1473C132.084 86.7355 132.103 87.2192 132.294 87.5979C132.486 87.9768 132.827 88.2286 133.318 88.3532C133.715 88.454 134.052 88.4199 134.328 88.2509C134.613 88.0838 134.875 87.7333 135.114 87.1997L135.503 86.3326C135.676 85.9557 135.868 85.6495 136.079 85.4142C136.288 85.1866 136.511 85.0162 136.748 84.9032C136.993 84.792 137.242 84.7313 137.494 84.7209C137.753 84.7125 138.011 84.7411 138.268 84.8064C139.016 84.9962 139.517 85.3834 139.771 85.968C140.025 86.5526 140.043 87.259 139.827 88.0872C139.657 88.7375 139.405 89.2555 139.072 89.6413C138.736 90.035 138.335 90.3167 137.867 90.4868L137.45 89.6504C137.805 89.5011 138.117 89.2915 138.387 89.0216C138.657 88.7517 138.857 88.3652 138.989 87.862C139.133 87.3124 139.126 86.8609 138.969 86.5075C138.813 86.154 138.501 85.9179 138.034 85.7992C137.668 85.7062 137.34 85.7385 137.049 85.8959C136.765 86.063 136.497 86.4201 136.246 86.9672L135.866 87.7995C135.693 88.1765 135.501 88.4826 135.29 88.718C135.079 88.9532 134.855 89.1275 134.618 89.2406C134.378 89.3614 134.129 89.4261 133.869 89.4344C133.61 89.4428 133.348 89.4132 133.083 89.3461C132.328 89.1542 131.801 88.7562 131.502 88.152C131.201 87.5556 131.169 86.8045 131.406 85.8988Z" fill="#151515"/>
<path d="M136.58 94.6366L129.499 92.076L129.851 91.1309L136.932 93.6916L137.908 91.0703L138.735 91.3694L136.431 97.557L135.604 97.2579L136.58 94.6366Z" fill="#151515"/>
<path d="M126.328 99L128.804 99.3907L130.096 96.7472L128.241 95.0833L128.7 94.1445L135.167 100.057L134.582 101.255L125.858 99.9602L126.328 99ZM133.888 100.234L133.935 100.137L130.785 97.3399L129.704 99.5519L133.888 100.234Z" fill="#151515"/>
<path d="M124.593 101.785L127.418 103.488L133.316 103.664L132.708 104.644L130.198 104.533L128.02 104.413L127.995 104.453L129.083 106.33L130.326 108.482L129.73 109.441L126.886 104.346L124.06 102.643L124.593 101.785Z" fill="#151515"/>
<path d="M122.36 117.036L116.75 112.031L117.433 111.287L123.043 116.293L124.939 114.23L125.594 114.814L121.12 119.684L120.465 119.1L122.36 117.036Z" fill="#151515"/>
<path d="M119.716 120.885L116.307 117.175C116.031 116.874 115.775 116.614 115.54 116.393C115.305 116.173 115.07 116.012 114.835 115.911C114.606 115.815 114.369 115.795 114.126 115.85C113.877 115.911 113.606 116.072 113.313 116.334C113.02 116.596 112.833 116.843 112.753 117.076C112.667 117.314 112.661 117.55 112.735 117.785C112.814 118.025 112.954 118.272 113.153 118.524C113.352 118.776 113.589 119.052 113.866 119.353L117.274 123.063L116.52 123.736L113.275 120.204C112.852 119.743 112.507 119.321 112.24 118.936C111.967 118.555 111.797 118.186 111.729 117.828C111.655 117.475 111.696 117.122 111.851 116.769C112.005 116.427 112.294 116.067 112.719 115.688C113.144 115.309 113.54 115.058 113.906 114.935C114.272 114.823 114.632 114.819 114.987 114.921C115.337 115.028 115.692 115.232 116.055 115.531C116.411 115.836 116.801 116.219 117.224 116.68L120.47 120.212L119.716 120.885Z" fill="#151515"/>
<path d="M113.781 124.246L113.848 124.197L109.553 118.54L110.289 117.996L115.362 124.678L114.21 125.527L107.653 121.628L107.585 121.678L111.837 127.278L111.101 127.82L106.027 121.14L107.18 120.289L113.781 124.246Z" fill="#151515"/>
<path d="M105.299 121.518L109.722 128.642L105.288 131.315L104.825 130.57L108.393 128.42L106.904 126.02L103.46 128.097L102.997 127.352L106.441 125.275L104.895 122.786L101.328 124.936L100.865 124.191L105.299 121.518Z" fill="#151515"/>
<path d="M103.784 132.091L101.664 133.1C100.736 133.541 99.8882 133.556 99.1212 133.141C98.3544 132.725 97.666 131.895 97.0562 130.652C96.4464 129.408 96.2149 128.362 96.3614 127.511C96.5079 126.662 97.0452 126.016 97.9732 125.573L100.094 124.564L103.784 132.091ZM98.4026 126.34C97.7937 126.63 97.4392 127.056 97.3391 127.618C97.2318 128.183 97.3649 128.847 97.7386 129.608L98.3095 130.773C98.6831 131.535 99.1281 132.051 99.6443 132.319C100.153 132.591 100.712 132.581 101.321 132.292L102.485 131.738L99.5662 125.786L98.4026 126.34Z" fill="#151515"/>
<path d="M74.716 131.297C75.4698 131.25 76.0962 131.347 76.5948 131.588C77.094 131.838 77.5138 132.168 77.8543 132.579L77.1591 133.223C76.8041 132.837 76.4397 132.555 76.0659 132.379C75.6842 132.202 75.2406 132.129 74.7354 132.162C74.1259 132.2 73.6698 132.368 73.3668 132.668C73.0641 132.967 72.9288 133.369 72.9612 133.871C72.9874 134.278 73.124 134.586 73.3709 134.795C73.6184 135.012 74.034 135.15 74.6177 135.21L75.5659 135.307C75.9796 135.353 76.3314 135.439 76.6213 135.565C76.9033 135.693 77.1348 135.85 77.3161 136.039C77.4979 136.236 77.6326 136.452 77.7202 136.687C77.8083 136.93 77.8608 137.183 77.8778 137.447C77.9271 138.213 77.7117 138.807 77.2316 139.231C76.7515 139.653 76.0824 139.891 75.2243 139.945C74.5506 139.987 73.9781 139.911 73.5065 139.715C73.0269 139.521 72.6337 139.229 72.3268 138.84L72.9973 138.184C73.2494 138.474 73.5461 138.703 73.8872 138.874C74.2283 139.045 74.6596 139.114 75.1809 139.082C75.7503 139.046 76.1797 138.9 76.469 138.64C76.7584 138.382 76.8876 138.013 76.8567 137.534C76.8326 137.16 76.7005 136.859 76.4605 136.633C76.2131 136.417 75.7893 136.274 75.1891 136.208L74.2769 136.109C73.8632 136.063 73.5115 135.977 73.2215 135.851C72.9316 135.724 72.6959 135.567 72.5146 135.378C72.3254 135.189 72.1867 134.974 72.0986 134.73C72.0104 134.488 71.9576 134.23 71.9402 133.959C71.8904 133.185 72.108 132.562 72.593 132.091C73.07 131.621 73.7776 131.355 74.716 131.297Z" fill="#151515"/>
<path d="M67.9525 138.977L68.1901 131.482L69.2021 131.514L68.9645 139.009L71.7715 139.095L71.7438 139.97L65.1176 139.766L65.1455 138.891L67.9525 138.977Z" fill="#151515"/>
<path d="M60.5505 130.689L60.9404 133.146L63.8691 133.525L64.8897 131.25L65.9296 131.385L62.2654 139.355L60.9386 139.183L59.4866 130.551L60.5505 130.689ZM61.7012 138.205L61.8088 138.22L63.5143 134.363L61.0638 134.046L61.7012 138.205Z" fill="#151515"/>
<path d="M57.2747 130.101L56.5445 133.307L58.2501 138.896L57.1206 138.646L56.429 136.256L55.8526 134.174L55.8056 134.164L54.3582 135.798L52.6966 137.667L51.5906 137.422L55.5561 133.089L56.2864 129.883L57.2747 130.101Z" fill="#151515"/>
<path d="M41.8436 132.788L44.9263 125.945L45.8533 126.351L42.7707 133.193L45.342 134.317L44.9819 135.118L38.9124 132.461L39.2723 131.662L41.8436 132.788Z" fill="#151515"/>
<path d="M37.2943 131.536L39.7978 127.17C40.0009 126.816 40.1717 126.493 40.3099 126.204C40.4482 125.915 40.5296 125.643 40.5539 125.392C40.5743 125.146 40.5196 124.919 40.39 124.709C40.2534 124.495 40.0133 124.292 39.6696 124.102C39.3259 123.91 39.0296 123.814 38.7805 123.813C38.5243 123.807 38.2949 123.876 38.0923 124.02C37.8855 124.171 37.6921 124.379 37.5116 124.645C37.3313 124.912 37.1395 125.222 36.9364 125.576L34.4328 129.942L33.5492 129.45L35.9332 125.292C36.2439 124.751 36.5428 124.294 36.8299 123.922C37.1101 123.546 37.4121 123.27 37.7357 123.093C38.0523 122.912 38.4047 122.838 38.793 122.871C39.1703 122.907 39.6079 123.063 40.1057 123.341C40.6037 123.618 40.9692 123.909 41.2021 124.212C41.4239 124.519 41.5414 124.855 41.5543 125.22C41.5604 125.58 41.4758 125.978 41.3008 126.411C41.1189 126.842 40.8726 127.328 40.5619 127.87L38.1779 132.028L37.2943 131.536Z" fill="#151515"/>
<path d="M32.1917 126.999L32.261 127.047L36.3738 121.257L37.1269 121.776L32.2694 128.615L31.0903 127.802L32.8032 120.443L32.7337 120.395L28.6628 126.127L27.9097 125.607L32.7671 118.77L33.9463 119.582L32.1917 126.999Z" fill="#151515"/>
<path d="M32.1445 118.254L26.652 124.597L22.6923 121.268L23.2667 120.604L26.4529 123.283L28.3021 121.148L25.2263 118.562L25.8008 117.898L28.8765 120.484L30.7965 118.266L27.6104 115.587L28.1848 114.924L32.1445 118.254Z" fill="#151515"/>
<path d="M21.4997 120.116L19.8567 118.444C19.1382 117.711 18.8561 116.921 19.0129 116.074C19.1708 115.226 19.7506 114.324 20.7547 113.367C21.7577 112.41 22.6924 111.867 23.5568 111.741C24.4213 111.614 25.2131 111.917 25.9321 112.649L27.575 114.322L21.4997 120.116ZM25.3304 113.29C24.8585 112.809 24.3365 112.609 23.764 112.69C23.1859 112.765 22.5893 113.096 21.9746 113.682L21.0344 114.579C20.4196 115.165 20.064 115.742 19.9688 116.309C19.8687 116.87 20.0544 117.391 20.5257 117.872L21.4274 118.789L26.2319 114.208L25.3304 113.29Z" fill="#151515"/>
<path d="M12.968 92.7229C13.2561 93.418 13.3658 94.0383 13.2959 94.584C13.2188 95.1326 13.0391 95.6321 12.757 96.0824L11.918 95.6309C12.1723 95.1747 12.323 94.7428 12.3712 94.3351C12.4171 93.92 12.3423 93.4795 12.1494 93.0137C11.9167 92.4518 11.6081 92.0754 11.2247 91.8846C10.8414 91.6939 10.4146 91.693 9.94563 91.882C9.56587 92.035 9.31632 92.2607 9.19576 92.5592C9.06917 92.8606 9.07159 93.2955 9.203 93.8638L9.41638 94.7873C9.50559 95.1914 9.53694 95.5499 9.50921 95.8627C9.48028 96.1681 9.40432 96.4358 9.28256 96.6661C9.15236 96.8995 8.9896 97.0943 8.7943 97.2509C8.59056 97.4105 8.36632 97.5397 8.12039 97.6387C7.40548 97.9266 6.76773 97.9112 6.20955 97.5925C5.65137 97.2736 5.20893 96.7186 4.88101 95.9275C4.62302 95.3064 4.51089 94.7432 4.54465 94.2377C4.57599 93.7249 4.7279 93.2625 5.00036 92.8507L5.84185 93.2756C5.64775 93.6041 5.52358 93.9559 5.47053 94.3309C5.41749 94.7061 5.49103 95.1339 5.68995 95.6146C5.90695 96.1395 6.18665 96.4975 6.52662 96.6885C6.86659 96.8794 7.2596 96.8849 7.70687 96.705C8.05769 96.564 8.30122 96.3449 8.43866 96.048C8.56645 95.7466 8.56404 95.3028 8.43504 94.7165L8.23492 93.8263C8.14571 93.4222 8.11436 93.0638 8.14088 92.751C8.1674 92.4382 8.24215 92.1667 8.36392 91.9363C8.48327 91.6988 8.6436 91.5001 8.84735 91.3406C9.05109 91.1811 9.27894 91.0503 9.53211 90.9483C10.2555 90.6574 10.9197 90.6659 11.5249 90.9741C12.1289 91.275 12.6087 91.8579 12.968 92.7229Z" fill="#151515"/>
<path d="M3.54071 88.7354L10.7722 86.63L11.0615 87.5957L3.83001 89.7011L4.63404 92.3799L3.78902 92.6257L1.89286 86.3026L2.73788 86.0566L3.54071 88.7354Z" fill="#151515"/>
<path d="M9.12316 79.1905L6.90375 80.3353L7.47157 83.22L9.96342 83.4647L10.166 84.4889L1.40648 83.548L1.1485 82.2411L8.91702 78.1426L9.12316 79.1905ZM2.3227 82.652L2.34439 82.7581L6.56018 83.1497L6.0864 80.736L2.3227 82.652Z" fill="#151515"/>
<path d="M8.73334 75.9524L5.44362 76.2442L0.615745 79.5754L0.510873 78.4283L2.58668 77.0397L4.40331 75.8548L4.39849 75.8069L2.39501 74.9367L0.10101 73.9357L-0.0014534 72.8125L5.35201 75.2406L8.64172 74.9488L8.73334 75.9524Z" fill="#151515"/>
<path d="M1.34967 62.3891L8.85052 63.102L8.75167 64.1052L1.25202 63.3921L0.97957 66.1744L0.103138 66.0911L0.745696 59.5234L1.62212 59.6068L1.34967 62.3891Z" fill="#151515"/>
<path d="M1.13024 57.7514L6.09073 58.704C6.49215 58.7813 6.8538 58.8385 7.17445 58.8756C7.4951 58.9127 7.77959 58.9022 8.02792 58.8442C8.26901 58.7845 8.47033 58.6602 8.63065 58.471C8.79219 58.274 8.91153 57.9833 8.98747 57.5987C9.06341 57.2141 9.06341 56.9046 8.98626 56.6699C8.91153 56.4274 8.7741 56.234 8.57279 56.0896C8.36424 55.9436 8.10507 55.8285 7.79406 55.7443C7.48305 55.6602 7.12623 55.5794 6.7236 55.502L1.7643 54.5494L1.95959 53.5605L6.68261 54.4678C7.2974 54.586 7.82781 54.7205 8.27383 54.8712C8.71985 55.014 9.07908 55.2092 9.3491 55.4567C9.62154 55.6963 9.80237 56.0039 9.89157 56.3794C9.97475 56.7457 9.96148 57.2075 9.85178 57.7647C9.74088 58.3219 9.57694 58.7587 9.35875 59.0752C9.13454 59.3824 8.84884 59.6006 8.50408 59.7298C8.16052 59.8513 7.75427 59.8994 7.28414 59.8742C6.81521 59.8413 6.27276 59.7656 5.65797 59.6474L0.934947 58.7403L1.13024 57.7514Z" fill="#151515"/>
<path d="M3.86935 51.5193L3.84524 51.5997L10.6706 53.6315L10.403 54.5037L2.34201 52.1039L2.76031 50.7384L10.3536 50.0184L10.3789 49.9381L3.62222 47.9268L3.88984 47.0547L11.9509 49.4545L11.5326 50.8201L3.86935 51.5193Z" fill="#151515"/>
<path d="M12.2632 48.741L4.45849 45.6117L6.42837 40.8398L7.24573 41.167L5.65923 45.0068L8.28733 46.0603L9.81839 42.3538L10.6345 42.6811L9.10349 46.3876L11.8329 47.4816L13.4182 43.6418L14.2343 43.9691L12.2632 48.741Z" fill="#151515"/>
<path d="M7.18482 39.3546L8.2855 37.2875C8.76773 36.3829 9.44044 35.8702 10.3048 35.7495C11.1704 35.6288 12.2193 35.8875 13.4526 36.5255C14.6871 37.1636 15.4984 37.8675 15.889 38.6373C16.2796 39.4071 16.2338 40.2443 15.7528 41.1488L14.6521 43.216L7.18482 39.3546ZM14.9487 40.7874C15.2645 40.1938 15.2959 39.6416 15.0403 39.1309C14.7883 38.613 14.2844 38.1587 13.5285 37.7678L12.3724 37.1703C11.6165 36.7794 10.951 36.6288 10.376 36.7188C9.80451 36.8018 9.35966 37.1401 9.0438 37.7337L8.43981 38.868L14.3447 41.9217L14.9487 40.7874Z" fill="#151515"/>
<path d="M30.9727 22.8898C30.3961 23.3757 29.8346 23.6709 29.2881 23.7753C28.7362 23.8735 28.1988 23.8601 27.6759 23.7347L27.8431 22.8077C28.3624 22.9046 28.8258 22.9122 29.2331 22.831C29.6466 22.7445 30.0465 22.5385 30.4329 22.2129C30.899 21.82 31.1628 21.4142 31.2243 20.9956C31.2857 20.577 31.151 20.177 30.82 19.7955C30.5521 19.4868 30.2556 19.3227 29.9307 19.3031C29.6004 19.2775 29.1831 19.4144 28.6783 19.714L27.8584 20.2007C27.4983 20.4098 27.1637 20.5505 26.8545 20.6224C26.5513 20.6891 26.2697 20.7013 26.0096 20.6584C25.7442 20.6096 25.5051 20.5177 25.2923 20.3826C25.0742 20.2414 24.8785 20.071 24.7051 19.8713C24.2008 19.2901 24.0132 18.6884 24.1421 18.0662C24.271 17.4438 24.6637 16.8562 25.3199 16.303C25.8351 15.8688 26.3411 15.5891 26.8377 15.4639C27.3405 15.3336 27.8333 15.3323 28.3159 15.4601L28.1749 16.3807C27.7975 16.3006 27.42 16.2938 27.0424 16.3605C26.6649 16.4273 26.2768 16.6286 25.8781 16.9645C25.4426 17.3315 25.1872 17.7041 25.1117 18.0821C25.0363 18.4602 25.1562 18.8308 25.4713 19.194C25.7183 19.4784 26.0064 19.6392 26.3358 19.676C26.6659 19.7017 27.0922 19.5625 27.6143 19.2588L28.4067 18.7953C28.7668 18.586 29.1014 18.4455 29.4107 18.3736C29.7199 18.3016 30.0046 18.287 30.2647 18.3298C30.531 18.3674 30.7732 18.4568 30.9911 18.5979C31.2092 18.739 31.4076 18.9125 31.5861 19.1183C32.0958 19.7054 32.2988 20.331 32.1953 20.9947C32.0977 21.6533 31.6903 22.2851 30.9727 22.8898Z" fill="#151515"/>
<path d="M31.7706 12.7859L36.1054 18.9189L35.272 19.4911L30.9371 13.3581L28.625 14.9452L28.1187 14.229L33.5763 10.4824L34.0826 11.1987L31.7706 12.7859Z" fill="#151515"/>
<path d="M42.7246 15.0281L40.9187 13.296L38.3378 14.7255L38.9007 17.1461L37.9842 17.6536L36.0843 9.12225L37.2536 8.47461L43.662 14.5089L42.7246 15.0281ZM37.2355 9.70662L37.1407 9.75913L38.1141 13.8472L40.2736 12.651L37.2355 9.70662Z" fill="#151515"/>
<path d="M45.7688 13.7455L44.4286 10.7409L39.6909 7.24516L40.7521 6.78551L42.7476 8.30251L44.4647 9.63912L44.509 9.61996L44.6928 7.45982L44.908 4.98522L45.9469 4.53516L45.357 10.3386L46.6972 13.3433L45.7688 13.7455Z" fill="#151515"/>
<path d="M56.4566 2.43262L58.126 9.74485L57.1377 9.96399L55.4682 2.65178L52.7267 3.25963L52.5317 2.40557L59.0031 0.970703L59.1982 1.82477L56.4566 2.43262Z" fill="#151515"/>
<path d="M60.9083 0.803893L61.5219 5.79372C61.5717 6.19862 61.6281 6.55842 61.6911 6.87314C61.7542 7.18785 61.8517 7.45413 61.9836 7.67198C62.1147 7.88189 62.2952 8.03352 62.5253 8.12687C62.7633 8.21928 63.0778 8.24212 63.4687 8.19543C63.8597 8.14872 64.1554 8.05295 64.3562 7.90813C64.565 7.76235 64.7076 7.57212 64.7839 7.33743C64.8593 7.09481 64.8894 6.81327 64.8742 6.49284C64.8592 6.17242 64.8268 5.80975 64.7769 5.40485L64.1633 0.41502L65.1685 0.294922L65.7529 5.04658C65.8289 5.66584 65.8635 6.20952 65.8563 6.67762C65.857 7.14477 65.7807 7.54459 65.6274 7.8771C65.4819 8.20866 65.2435 8.4748 64.912 8.67552C64.5875 8.86735 64.142 8.9971 63.5756 9.06478C63.0092 9.13244 62.5412 9.11182 62.1715 9.00292C61.809 8.88511 61.513 8.68284 61.2834 8.39608C61.0619 8.10837 60.8908 7.73808 60.7704 7.28524C60.658 6.83143 60.5636 6.29489 60.4874 5.67564L59.9031 0.923978L60.9083 0.803893Z" fill="#151515"/>
<path d="M67.6865 1.41035L67.6021 1.41285L67.8178 8.50034L66.9023 8.52741L66.6475 0.15674L68.0811 0.11434L71.1619 7.0451L71.2462 7.04261L71.0327 0.0270672L71.9482 -1.11373e-08L72.203 8.37067L70.7694 8.41307L67.6865 1.41035Z" fill="#151515"/>
<path d="M73.0383 8.42858L73.5926 0.0722654L78.7645 0.405482L78.7066 1.27942L74.5449 1.0113L74.3583 3.82467L78.3756 4.0835L78.3176 4.95743L74.3004 4.69862L74.1067 7.61974L78.2683 7.88785L78.2103 8.7618L73.0383 8.42858Z" fill="#151515"/>
<path d="M80.4678 0.648437L82.7886 1.0209C83.8042 1.18389 84.5045 1.65277 84.8896 2.42753C85.2748 3.20229 85.3544 4.27238 85.1288 5.63778C84.9031 7.00319 84.483 7.99305 83.8682 8.60737C83.2537 9.22169 82.4385 9.44736 81.4229 9.28436L79.102 8.91191L80.4678 0.648437ZM81.5182 8.41249C82.1846 8.51945 82.7222 8.3708 83.1312 7.96651C83.548 7.5635 83.8256 6.94369 83.9638 6.10708L84.1752 4.82849C84.3135 3.99188 84.2498 3.31732 83.9843 2.8048C83.7267 2.29356 83.2646 1.98445 82.5982 1.87749L81.3247 1.67311L80.2446 8.20812L81.5182 8.41249Z" fill="#151515"/>
<path d="M98.561 14.8434C97.8801 14.5177 97.3826 14.1287 97.0683 13.6765C96.7576 13.2172 96.5565 12.7261 96.4651 12.2032L97.3932 11.9817C97.5098 12.49 97.6868 12.9119 97.9242 13.2475C98.1689 13.5864 98.5194 13.8651 98.9757 14.0833C99.5262 14.3468 100.008 14.4221 100.422 14.3094C100.835 14.1967 101.154 13.9142 101.377 13.4617C101.557 13.0954 101.592 12.7615 101.481 12.4599C101.373 12.1512 101.08 11.829 100.601 11.4933L99.8226 10.9477C99.4851 10.7063 99.2215 10.4603 99.0316 10.2097C98.8491 9.96264 98.726 9.71293 98.6623 9.46062C98.6022 9.20112 98.5927 8.94805 98.6337 8.70141C98.6781 8.4476 98.7588 8.2022 98.8756 7.96521C99.2153 7.27579 99.6999 6.86432 100.33 6.73077C100.959 6.59723 101.662 6.71587 102.437 7.08672C103.045 7.37785 103.506 7.72272 103.82 8.12136C104.141 8.52345 104.338 8.96828 104.411 9.45583L103.499 9.69848C103.424 9.32508 103.28 8.98115 103.068 8.6667C102.856 8.35226 102.514 8.08239 102.044 7.85711C101.529 7.61103 101.082 7.52987 100.7 7.61361C100.319 7.69736 100.022 7.95467 99.8096 8.38556C99.6434 8.72308 99.6085 9.04809 99.7051 9.36057C99.8126 9.66934 100.111 9.99864 100.601 10.3484L101.347 10.8784C101.685 11.1198 101.948 11.3657 102.138 11.6164C102.328 11.8669 102.455 12.1183 102.518 12.3707C102.589 12.6264 102.602 12.8813 102.558 13.135C102.513 13.3889 102.431 13.6379 102.311 13.882C101.967 14.5786 101.467 15.0135 100.808 15.1866C100.158 15.3634 99.4083 15.2489 98.561 14.8434Z" fill="#151515"/>
<path d="M108.309 11.4839L104.352 17.8651L103.486 17.3433L107.443 10.9621L105.04 9.51485L105.502 8.76953L111.175 12.1858L110.713 12.9311L108.309 11.4839Z" fill="#151515"/>
<path d="M110.632 22.249L111.513 19.9248L109.144 18.1694L107.122 19.6482L106.281 19.0249L113.439 13.8887L114.513 14.684L111.493 22.8866L110.632 22.249ZM113.361 15.1618L113.274 15.0973L109.869 17.6152L111.852 19.084L113.361 15.1618Z" fill="#151515"/>
<path d="M113.113 24.4146L115.353 21.9987L116.665 16.3203L117.523 17.0931L116.929 19.5028L116.389 21.5889L116.425 21.621L118.502 20.9195L120.884 20.1197L121.724 20.8764L116.104 22.6749L113.864 25.0907L113.113 24.4146Z" fill="#151515"/>
<path d="M127.886 29.5356L121.818 33.9799L121.21 33.1739L127.278 28.7295L125.592 26.4938L126.301 25.9746L130.281 31.2522L129.572 31.7712L127.886 29.5356Z" fill="#151515"/>
<path d="M131.262 32.8054L126.928 35.3877C126.577 35.5972 126.269 35.7944 126.006 35.9792C125.743 36.1641 125.538 36.3604 125.393 36.5683C125.254 36.772 125.19 36.997 125.199 37.2428C125.213 37.4956 125.323 37.7893 125.528 38.1237C125.733 38.4582 125.944 38.6868 126.16 38.8095C126.381 38.939 126.615 38.9906 126.863 38.9644C127.117 38.9339 127.389 38.8468 127.677 38.7029C127.965 38.5591 128.286 38.3823 128.637 38.1727L132.971 35.5906L133.499 36.4507L129.372 38.9096C128.834 39.2301 128.348 39.4822 127.915 39.6659C127.486 39.8564 127.086 39.9498 126.717 39.9462C126.351 39.9495 126.008 39.842 125.686 39.6239C125.374 39.4084 125.07 39.0583 124.773 38.5736C124.475 38.089 124.3 37.6574 124.247 37.279C124.204 36.9033 124.268 36.5534 124.436 36.2293C124.609 35.9121 124.878 35.607 125.245 35.3142C125.615 35.028 126.069 34.7247 126.607 34.4042L130.734 31.9453L131.262 32.8054Z" fill="#151515"/>
<path d="M133.408 39.253L133.371 39.1773L126.933 42.2132L126.534 41.3922L134.138 37.8066L134.762 39.0922L129.638 44.6682L129.675 44.7439L136.047 41.7388L136.446 42.5598L128.842 46.1453L128.218 44.8598L133.408 39.253Z" fill="#151515"/>
<path d="M129.123 46.8868L137.039 44.0449L138.829 48.8865L138.001 49.1837L136.561 45.2879L133.896 46.2447L135.286 50.0054L134.458 50.3026L133.068 46.5419L130.301 47.5354L131.741 51.4312L130.914 51.7284L129.123 46.8868Z" fill="#151515"/>
<path d="M139.292 50.457L139.884 52.7211C140.144 53.7119 139.994 54.5382 139.437 55.1999C138.879 55.8616 137.926 56.3636 136.579 56.7058C135.232 57.0479 134.152 57.0622 133.339 56.7486C132.526 56.435 131.99 55.7828 131.731 54.7919L131.139 52.5277L139.292 50.457ZM132.572 54.5289C132.742 55.1791 133.095 55.6094 133.632 55.8198C134.171 56.038 134.853 56.0422 135.678 55.8325L136.94 55.5122C137.765 55.3025 138.36 54.9739 138.725 54.5263C139.091 54.0865 139.19 53.5416 139.02 52.8913L138.695 51.6489L132.247 53.2865L132.572 54.5289Z" fill="#151515"/>
</svg>
