<svg width="115" height="115" viewBox="0 0 115 115" fill="none" xmlns="http://www.w3.org/2000/svg">
<g filter="url(#filter0_b_62_402)">
<path d="M54.9617 1.6831C56.5002 0.66298 58.4998 0.66298 60.0383 1.6831V1.6831C61.3432 2.54838 62.999 2.68931 64.4313 2.05701V2.05701C66.1201 1.31156 68.091 1.6495 69.4348 2.91494V2.91494C70.5748 3.9883 72.1829 4.40704 73.7016 4.02591V4.02591C75.492 3.57657 77.3774 4.24274 78.4881 5.7171V5.7171C79.4302 6.96767 80.9445 7.65216 82.5057 7.53316V7.53316C84.3463 7.39287 86.092 8.36809 86.9376 10.009V10.009C87.6548 11.4008 89.0316 12.3313 90.5904 12.4779V12.4779C92.4282 12.6507 93.9841 13.9069 94.5402 15.667V15.667C95.0118 17.16 96.2116 18.3099 97.7232 18.7178V18.7178C99.5054 19.1987 100.827 20.6998 101.077 22.5286V22.5286C101.29 24.0798 102.278 25.4159 103.699 26.0734V26.0734C105.374 26.8486 106.423 28.5513 106.361 30.3962V30.3962C106.308 31.961 107.056 33.4449 108.345 34.3331V34.3331C109.866 35.3802 110.611 37.2357 110.238 39.0435V39.0435C109.922 40.577 110.409 42.1659 111.529 43.2592V43.2592C112.851 44.5482 113.272 46.503 112.599 48.2218V48.2218C112.028 49.6797 112.239 51.3281 113.159 52.5951V52.5951C114.243 54.0888 114.328 56.0867 113.374 57.667V57.667C112.565 59.0075 112.495 60.6678 113.187 62.072V62.072C114.004 63.7276 113.75 65.711 112.542 67.1074V67.1074C111.518 68.2919 111.168 69.9164 111.614 71.4175V71.4175C112.138 73.1872 111.553 75.0992 110.127 76.2715V76.2715C108.918 77.2658 108.298 78.8078 108.483 80.3625V80.3625C108.701 82.1955 107.801 83.981 106.198 84.8955V84.8955C104.838 85.6711 103.966 87.0862 103.886 88.6498V88.6498C103.791 90.4933 102.602 92.101 100.867 92.7313V92.7313C99.3957 93.266 98.2978 94.5134 97.9544 96.041V96.041C97.5496 97.842 96.1059 99.2257 94.2894 99.5537V99.5537C92.7486 99.8319 91.4556 100.876 90.859 102.323V102.323C90.1557 104.03 88.4989 105.15 86.6531 105.166V105.166C85.0874 105.18 83.6367 105.99 82.804 107.316V107.316C81.8223 108.88 80.0002 109.703 78.1781 109.407V109.407C76.6326 109.156 75.0658 109.71 74.021 110.876V110.876C72.7893 112.251 70.8541 112.755 69.1083 112.155V112.155C67.6274 111.647 65.9895 111.928 64.7627 112.901V112.901C63.3163 114.047 61.3239 114.217 59.7045 113.331V113.331C58.3309 112.58 56.6691 112.58 55.2955 113.331V113.331C53.6761 114.217 51.6837 114.047 50.2373 112.901V112.901C49.0104 111.928 47.3726 111.647 45.8917 112.155V112.155C44.1459 112.755 42.2107 112.251 40.979 110.876V110.876C39.9342 109.71 38.3674 109.156 36.8219 109.407V109.407C34.9998 109.703 33.1777 108.88 32.196 107.316V107.316C31.3633 105.99 29.9126 105.18 28.3469 105.166V105.166C26.5011 105.15 24.8443 104.03 24.141 102.323V102.323C23.5444 100.876 22.2514 99.8319 20.7106 99.5537V99.5537C18.8941 99.2257 17.4504 97.842 17.0456 96.041V96.041C16.7022 94.5134 15.6043 93.266 14.1327 92.7313V92.7313C12.3977 92.101 11.2087 90.4933 11.114 88.6498V88.6498C11.0338 87.0862 10.1625 85.6711 8.80238 84.8955V84.8955C7.19888 83.981 6.29863 82.1955 6.51691 80.3625V80.3625C6.70206 78.8078 6.08245 77.2658 4.873 76.2715V76.2715C3.44711 75.0992 2.86156 73.1872 3.38648 71.4175V71.4175C3.83172 69.9164 3.48161 68.2919 2.4576 67.1074V67.1074C1.25033 65.7111 0.996339 63.7276 1.81279 62.072V62.072C2.50531 60.6678 2.43478 59.0075 1.62567 57.667V57.667C0.67176 56.0867 0.756627 54.0888 1.84112 52.5951V52.5951C2.761 51.3281 2.97207 49.6797 2.40114 48.2218V48.2218C1.72803 46.503 2.14932 44.5482 3.47066 43.2592V43.2592C4.59143 42.1659 5.07804 40.577 4.7617 39.0435V39.0435C4.38876 37.2357 5.13435 35.3802 6.65452 34.3331V34.3331C7.94394 33.4449 8.69209 31.961 8.63946 30.3962V30.3962C8.5774 28.5513 9.62584 26.8486 11.3011 26.0734V26.0734C12.7221 25.4159 13.7103 24.0798 13.9228 22.5286V22.5286C14.1735 20.6998 15.4946 19.1987 17.2768 18.7178V18.7178C18.7884 18.3099 19.9882 17.16 20.4598 15.667V15.667C21.0159 13.9069 22.5718 12.6507 24.4096 12.4779V12.4779C25.9684 12.3313 27.3452 11.4008 28.0624 10.009V10.009C28.908 8.36809 30.6537 7.39287 32.4943 7.53316V7.53316C34.0555 7.65216 35.5698 6.96767 36.5119 5.7171V5.7171C37.6226 4.24274 39.508 3.57657 41.2984 4.02591V4.02591C42.8171 4.40704 44.4252 3.9883 45.5651 2.91494V2.91494C46.909 1.6495 48.8799 1.31156 50.5686 2.05701V2.05701C52.001 2.68931 53.6568 2.54838 54.9617 1.6831V1.6831Z" fill="white" fill-opacity="0.19"/>
</g>
<defs>
<filter id="filter0_b_62_402" x="-12.0352" y="-12.082" width="139.07" height="138.977" filterUnits="userSpaceOnUse" color-interpolation-filters="sRGB">
<feFlood flood-opacity="0" result="BackgroundImageFix"/>
<feGaussianBlur in="BackgroundImageFix" stdDeviation="6.5"/>
<feComposite in2="SourceAlpha" operator="in" result="effect1_backgroundBlur_62_402"/>
<feBlend mode="normal" in="SourceGraphic" in2="effect1_backgroundBlur_62_402" result="shape"/>
</filter>
</defs>
</svg>
